
<svg width="10px" height="10px" viewBox="0 0 10 10" version="1.1" xmlns="http://www.w3.org/2000/svg" xmlns:xlink="http://www.w3.org/1999/xlink">
    <!-- Generator: Sketch 49.3 (51167) - http://www.bohemiancoding.com/sketch -->
    <desc>Created with Sketch.</desc>
    <defs></defs>
    <g id="Symbols" stroke="none" stroke-width="1" fill="none" fill-rule="evenodd">
        <g id="Cross-trigger" transform="translate(-10.000000, -10.000000)" fill="#FFFFFF">
            <g id="Cross">
                <path d="M16.2352941,16.2352941 L16.2352941,19.3940285 C16.2352941,19.9463133 15.7875789,20.3940285 15.2352941,20.3940285 L14.7647059,20.3940285 C14.2124211,20.3940285 13.7647059,19.9463133 13.7647059,19.3940285 L13.7647059,16.2352941 L10.6059715,16.2352941 C10.0536867,16.2352941 9.60597148,15.7875789 9.60597148,15.2352941 L9.60597148,14.7647059 C9.60597148,14.2124211 10.0536867,13.7647059 10.6059715,13.7647059 L13.7647059,13.7647059 L13.7647059,10.6059715 C13.7647059,10.0536867 14.2124211,9.60597148 14.7647059,9.60597148 L15.2352941,9.60597148 C15.7875789,9.60597148 16.2352941,10.0536867 16.2352941,10.6059715 L16.2352941,13.7647059 L19.3940285,13.7647059 C19.9463133,13.7647059 20.3940285,14.2124211 20.3940285,14.7647059 L20.3940285,15.2352941 C20.3940285,15.7875789 19.9463133,16.2352941 19.3940285,16.2352941 L16.2352941,16.2352941 Z" transform="translate(15.000000, 15.000000) rotate(-45.000000) translate(-15.000000, -15.000000) "></path>
            </g>
        </g>
    </g>
</svg>